HIERARCHY
ROOT pelvis
{
	OFFSET 0.000000 0.000000 0.000000
	CHANNELS 6 Xposition Yposition Zposition Zrotation Xrotation Yrotation
	JOINT lfemur
	{
		OFFSET 11.446000 0.000000 0.000000
		CHANNELS 3 Zrotation Xrotation Yrotation
		JOINT ltibia
		{
			OFFSET 0.000000 -42.030400 0.000000
			CHANNELS 3 Zrotation Xrotation Yrotation
			JOINT lfoot
			{
				OFFSET 0.000000 -39.930200 0.000000
				CHANNELS 3 Zrotation Xrotation Yrotation
				JOINT ltoes
				{
					OFFSET 0.000000 0.000000 11.775800
					CHANNELS 3 Zrotation Xrotation Yrotation
					End Site
					{
					    OFFSET 0.000000 0.000000 5.000000
					}
				}
			}
		}
	}
	JOINT rfemur
	{
		OFFSET -11.446000 0.000000 0.000000
		CHANNELS 3 Zrotation Xrotation Yrotation
		JOINT rtibia
		{
			OFFSET 0.000000 -42.030400 0.000000
			CHANNELS 3 Zrotation Xrotation Yrotation
			JOINT rfoot
			{
				OFFSET 0.000000 -39.930200 0.000000
				CHANNELS 3 Zrotation Xrotation Yrotation
				JOINT rtoes
				{
					OFFSET 0.000000 0.000000 11.775800
					CHANNELS 3 Zrotation Xrotation Yrotation
					End Site
					{
					    OFFSET 0.000000 0.000000 5.000000
					}
				}
			}
		}
	}
	JOINT thorax
	{
		OFFSET 0.000000 11.255600 -5.000000
		CHANNELS 3 Zrotation Xrotation Yrotation
		JOINT head
		{
			OFFSET 0.000000 43.799300 0.000000
			CHANNELS 3 Zrotation Xrotation Yrotation
			End Site
			{
			    OFFSET 0.000000 5.000000 0.000000
			}
		}
		JOINT lclavicle
		{
			OFFSET 0.000000 39.863000 0.000000
			CHANNELS 3 Zrotation Xrotation Yrotation
			JOINT lhumerus
			{
				OFFSET 17.380600 4.958300 0.000000
				CHANNELS 3 Zrotation Xrotation Yrotation
				JOINT lradius
				{
					OFFSET 0.000000 -27.561300 0.000000
					CHANNELS 3 Zrotation Xrotation Yrotation
					JOINT lhand
					{
						OFFSET 0.000000 -26.933000 0.000000
						CHANNELS 3 Zrotation Xrotation Yrotation
						End Site
						{
						    OFFSET 0.000000 -5.000000 0.000000
						}
					}
				}
			}
		}
		JOINT rclavicle
		{
			OFFSET 0.000000 39.863000 0.000000
			CHANNELS 3 Zrotation Xrotation Yrotation
			JOINT rhumerus
			{
				OFFSET -17.380600 4.958300 0.000000
				CHANNELS 3 Zrotation Xrotation Yrotation
				JOINT rradius
				{
					OFFSET 0.000000 -27.561300 0.000000
					CHANNELS 3 Zrotation Xrotation Yrotation
					JOINT rhand
					{
						OFFSET 0.000000 -26.933000 0.000000
						CHANNELS 3 Zrotation Xrotation Yrotation
						End Site
						{
						    OFFSET 0.000000 -5.000000 0.000000
						}
					}
				}
			}
		}
	}
}
MOTION
Frames:	7
Frame Time:	0.0333333
-114.757 86.7956 55.6271 -10.0839 -1.44855 -95.7074 -8.48789 -1.187 0.843869 -0.949137 21.9763 12.9302 5.97721 0.119921 0.150209 2.92212e-015 -5 1.59635e-015 -1.43456 -16.5585 3.39073 -1.4844 59.8336 -10.9419 1.66526 2.69146 -0.127527 7.95139e-016 -5 -0 -8.75886 9.39226 -0.980729 5.15001 17.6217 -10.8329 -1.59028e-015 -3.77691e-015 -0 15.3221 -17.8254 55.818 -1.3388 -0.0515868 -100.658 6.11302 -9.08596 -9.15858 -1.59028e-015 -3.77691e-015 -0 -10.5514 -1.09033 -35.1735 12.6579 -0.0404264 70.4981 0.114659 -0.709385 9.93041 
-117.308 87.0054 55.6407 -9.61018 -1.42521 -95.2629 -8.67966 1.01931 0.41417 -0.807341 20.2065 12.8348 5.83927 -0.529724 0.184722 9.64106e-015 -5 -0 -1.06783 -17.8509 3.88598 -1.2881 50.0345 -13.1481 1.8635 4.31901 -0.153701 -5.16876e-016 -5 3.1927e-015 -9.3002 9.32211 -1.40913 6.25373 16.5208 -11.4334 1.59028e-015 -9.93923e-016 -1.59028e-015 16.5455 -20.0868 53.0901 -2.92306 -0.00265222 -98.8012 7.93695 -10.0693 -8.86996 1.59028e-015 -9.93923e-016 -1.59028e-015 -9.84122 0.901876 -36.8505 12.3034 -0.0592319 70.5231 0.25659 -0.763292 9.9345 
-119.947 87.0438 55.6424 -9.33266 -1.49336 -95.4765 -8.95948 3.58073 0.578035 -0.779548 18.2091 12.9249 5.83232 -1.29645 0.227842 2.47983e-015 -5 7.98176e-016 -0.744977 -18.1337 4.93258 -1.17622 39.0162 -15.6451 1.70916 7.68495 -0.17985 3.97569e-016 -5 -0 -9.55334 9.16011 -1.5158 6.62651 15.8468 -11.7081 -7.95139e-016 -3.37934e-015 -3.18055e-015 17.6214 -22.5254 51.6912 -4.22084 -0.0668511 -97.7577 7.86322 -10.1863 -8.86139 -7.95139e-016 -3.37934e-015 -3.18055e-015 -9.70061 2.5011 -37.3879 12.1829 -0.0762355 69.4814 0.0413994 -0.705948 9.91988 
-122.633 86.8785 55.65 -9.10491 -1.86254 -95.5932 -9.54259 6.06337 0.735147 -0.72259 16.3966 13.019 5.21836 -2.45158 0.275668 -1.2424e-015 -5 -0 -1.03815 -17.7964 4.40338 -1.42338 27.7573 -16.2519 0.435485 10.2906 -0.132056 3.97569e-016 -5 -0 -10.1915 8.68537 -1.64502 7.15921 15.4415 -11.9907 -1.59028e-015 9.93923e-016 1.59028e-015 19.2293 -24.7823 51.2669 -5.20157 -0.0023155 -97.3636 6.908 -9.91009 -9.01617 -1.59028e-015 9.93923e-016 1.59028e-015 -9.56559 3.77882 -37.788 12.0529 -0.0871094 68.7431 -0.120428 -0.689586 9.90956 
-125.251 86.5556 55.5909 -8.76419 -2.18271 -95.3673 -9.96244 7.67258 0.836837 -0.61045 16.1448 12.5368 5.18639 -3.96153 0.354864 -1.40638e-015 -5 -1.59635e-015 -1.62132 -16.9988 1.18741 -1.40275 16.6046 -13.8031 0.607949 12.3408 -0.173771 -2.10715e-015 -5 3.1927e-015 -10.6993 8.37101 -1.93207 7.58921 14.7061 -12.4647 -1.59028e-015 -1.19271e-015 -0 19.5589 -26.0933 50.2897 -5.50728 -0.0955671 -97.697 7.93652 -10.431 -8.83086 -1.59028e-015 -1.19271e-015 -0 -9.40323 4.34347 -38.6545 11.8368 -0.0944275 69.3573 -0.0354572 -0.697682 9.91222 
-127.935 86.1312 55.4476 -8.68512 -2.65124 -94.9475 -10.304 9.07442 1.07139 -0.655542 16.9771 11.7075 4.70563 -5.73131 0.411631 1.3418e-015 -5 -0 -2.23058 -15.6525 0.137265 -0.431051 6.93646 -12.5188 2.70585 13.2697 -0.399989 2.78262e-016 -5 3.1927e-015 -11.6108 8.06098 -2.18048 8.14303 14.4299 -13.0173 1.59028e-015 3.18055e-015 1.59028e-015 20.3583 -27.5504 50.1067 -5.08655 -0.0978874 -98.2815 8.01708 -10.4487 -8.81814 1.59028e-015 3.18055e-015 1.59028e-015 -9.07814 4.47246 -38.8463 11.749 -0.0489398 69.2845 -0.101035 -0.788379 9.91497 
-130.638 85.5774 55.2286 -8.57301 -3.31552 -94.3344 -10.6495 10.0221 1.35499 -0.768827 18.7365 10.4591 3.52659 -7.54794 0.399576 3.97569e-015 -5 -0 -2.73423 -16.0816 0.163387 -0.0853618 3.37137 -11.3158 5.14799 12.258 -0.616733 -1.45115e-015 -5 1.59635e-015 -12.6725 7.72762 -2.36674 8.58888 14.1764 -13.743 -0 -3.18055e-015 -0 20.4496 -28.7604 50.1728 -4.17104 -0.179194 -99.0502 7.70145 -10.1375 -8.8736 -0 -3.18055e-015 -0 -8.639 4.22071 -39.0367 11.5981 -0.106024 69.6234 -0.196562 -0.721919 9.90103 
